<?xml version="1.0" standalone="no"?>
<!DOCTYPE svg PUBLIC "-//W3C//DTD SVG 1.1//EN" "http://www.w3.org/Graphics/SVG/1.1/DTD/svg11.dtd" >
<svg xmlns="http://www.w3.org/2000/svg" xmlns:xlink="http://www.w3.org/1999/xlink" version="1.1">
<metadata>
Created by FontForge 20170731 at Wed Oct 30 20:05:06 1929
 By Aleksey,,,
Copyright SoftMaker Software GmbH 1995
</metadata>
<defs>
<font id="Gibson-BoldItalic" horiz-adv-x="503" >
  <font-face 
    font-family="Gibson"
    font-weight="700"
    font-style="italic"
    font-stretch="normal"
    units-per-em="1000"
    panose-1="0 0 0 0 0 0 0 0 0 0"
    ascent="800"
    descent="-200"
    x-height="460"
    cap-height="708"
    bbox="-175 -262 968 928"
    underline-thickness="40"
    underline-position="-206"
    unicode-range="U+0020-2215"
  />
<missing-glyph horiz-adv-x="700" 
d="M43 0v700h614v-700h-614zM614 43v614h-528v-614h528z" />
    <glyph glyph-name=".notdef" horiz-adv-x="700" 
d="M43 0v700h614v-700h-614zM614 43v614h-528v-614h528z" />
    <glyph glyph-name=".null" horiz-adv-x="0" 
 />
    <glyph glyph-name="nonmarkingreturn" horiz-adv-x="262" 
 />
    <glyph glyph-name="space" unicode=" " horiz-adv-x="262" 
 />
    <glyph glyph-name="exclam" unicode="!" horiz-adv-x="322" 
d="M183 178q40 0 66 -25t26 -66q0 -46 -28.5 -74.5t-74.5 -28.5q-37 0 -63.5 28.5t-26.5 66.5q0 41 30 70t71 29zM247 723q38 0 60 -28.5t22 -67.5q0 -14 -1 -28.5t-4 -28.5l-75 -332l-110 -1l3 216q0 107 12 162q24 108 93 108z" />
    <glyph glyph-name="quotedbl" unicode="&#x22;" horiz-adv-x="515" 
d="M76 469q67 15 95 78q-31 14 -46 31q-19 21 -19 52q0 40 29.5 66.5t69.5 26.5q48 0 79 -39q28 -36 28 -86q0 -55 -30.5 -102t-81.5 -79q-27 -17 -66 -27q-20 -5 -70 -13zM327 472q34 10 59 26q30 20 41 49q-31 16 -45 33q-18 21 -18 52q0 42 29.5 66.5t72.5 24.5
q48 0 76 -37.5t28 -87.5q0 -91 -81 -156q-76 -61 -170 -61h-6z" />
    <glyph glyph-name="numbersign" unicode="#" horiz-adv-x="504" 
d="M105 206h-97v67h107l26 193h-107v68h117l29 206h69l-29 -206h124l29 206h69l-29 -206h83v-67h-93l-27 -194h92v-67h-101l-29 -206h-69l29 206h-124l-29 -206h-69zM211 467l-27 -194h123l27 194h-123z" />
    <glyph glyph-name="dollar" unicode="$" horiz-adv-x="523" 
d="M50 221q40 -34 80 -56t92 -41l25 165q-74 41 -123 97q-61 70 -61 142q0 92 80 149q72 51 168 51l12 85h73l-12 -93q41 -12 74.5 -26t70.5 -36l-18 -142q-29 24 -69 42q-19 8 -77 29l-24 -164q75 -41 119 -91q57 -64 57 -136q0 -100 -73 -159q-68 -55 -169 -55l-13 -83
h-72l12 84q-62 18 -93 33q-36 18 -82 57zM289 594q-25 -8 -34 -12q-29 -14 -29 -48q0 -20 14 -37q11 -14 32 -26zM362 174q0 23 -14 41.5t-35 30.5l-16 -127q25 0 45 15t20 40z" />
    <glyph glyph-name="percent" unicode="%" horiz-adv-x="805" 
d="M217 718q71 0 101 -61q22 -44 22 -124q0 -95 -33 -173q-44 -103 -126 -103q-67 0 -100 64q-25 49 -25 124q0 95 34 172q45 101 127 101zM181 347q35 0 53 90q12 60 12 120q0 30 -3 43q-6 28 -26 28q-33 0 -53 -83q-16 -65 -16 -113q0 -45 8 -65t25 -20zM545 704h83
l-337 -705h-82zM650 452q71 0 104 -52q27 -43 27 -118q0 -103 -31 -182q-43 -110 -129 -110q-70 0 -101 67q-24 51 -24 130q0 86 35 165q44 100 119 100zM623 80q32 0 51 88q14 65 14 118q0 30 -4 46q-7 30 -28 30q-35 0 -53 -93q-13 -66 -13 -124q0 -37 7.5 -51t25.5 -14z
" />
    <glyph glyph-name="ampersand" unicode="&#x26;" horiz-adv-x="664" 
d="M223 523q0 84 60 143t145 59q72 0 124.5 -42.5t52.5 -113.5q0 -81 -64 -132q-34 -28 -135 -71q10 -28 24.5 -57.5t31.5 -55.5q31 43 53 89l150 1q-12 -41 -41 -90q-15 -25 -55 -83q31 -11 53.5 -18t49.5 -12l-27 -144q-61 7 -103.5 19t-88.5 38q-64 -37 -101 -50
q-49 -17 -113 -17q-93 0 -164 53q-78 59 -78 149q0 113 63 172q53 50 171 78q-4 17 -6 40t-2 45zM261 318q-62 -20 -84.5 -44.5t-22.5 -56.5q0 -41 35.5 -67t77.5 -26q22 0 40 6t45 19q-41 65 -59.5 100t-31.5 69zM472 563q0 17 -12 28t-29 11q-27 0 -43.5 -23t-16.5 -52
v-17q0 -10 2 -19t3 -14q35 6 63 28q33 26 33 58z" />
    <glyph glyph-name="quotesingle" unicode="'" horiz-adv-x="268" 
d="M330 630q-32 0 -60 -19t-46 -49q30 -19 42 -34q16 -21 16 -52q0 -39 -27.5 -64.5t-67.5 -25.5q-50 0 -79.5 34t-29.5 86q0 86 71 148q66 57 155 66l39 3z" />
    <glyph glyph-name="parenleft" unicode="(" horiz-adv-x="322" 
d="M443 706q-95 -134 -146 -274q-56 -153 -56 -306q0 -179 80 -341h-142q-11 40 -42 137q-48 148 -48 234q0 142 66 292q53 121 156 258h132z" />
    <glyph glyph-name="parenright" unicode=")" horiz-adv-x="322" 
d="M140 379q0 100 -35 206q-10 30 -45 121l138 -1q45 -94 69.5 -188t24.5 -188t-25 -180q-21 -73 -68 -160q-34 -62 -95 -154q-8 -12 -15 -23t-20 -27l-131 -1q98 128 150 280.5t52 314.5z" />
    <glyph glyph-name="asterisk" unicode="*" horiz-adv-x="403" 
d="M208 501l-105 32q-23 8 -28 11q-13 8 -13 27q0 15 28 51.5t41 36.5q11 0 20 -7q1 -1 21 -28l65 -90q-10 70 -19 141q0 20 10 26.5t31 6.5q32 0 53 -4q39 -8 39 -27q0 -8 -19 -47t-52 -100q40 35 66 55q50 39 69 39q13 0 32.5 -41t19.5 -57q0 -22 -12.5 -27t-37.5 -5h-117
l106 -47q14 -6 29 -12q15 -9 15 -26q0 -12 -32.5 -51.5t-43.5 -39.5q-16 0 -29 18q-9 14 -12 19l-63 98l17 -76.5t9 -68.5q0 -23 -8.5 -27.5t-33.5 -4.5q-35 0 -53 4q-36 8 -36 31q0 14 27 72q18 38 37 77l-83 -78q-10 -9 -19.5 -17.5t-24.5 -8.5q-14 0 -33.5 40.5
t-19.5 57.5q0 21 17 27q3 1 35 5z" />
    <glyph glyph-name="plus" unicode="+" horiz-adv-x="644" 
d="M67 345h244v244h103v-244h243v-103h-243v-242h-103v242h-244v103z" />
    <glyph glyph-name="comma" unicode="," horiz-adv-x="282" 
d="M-16 -75q37 12 60 27q29 19 43 49q-32 21 -43 33q-20 22 -20 51q0 44 27 69t71 25q50 0 78 -36t28 -88q0 -92 -73 -153q-65 -54 -162 -64l-19 -2z" />
    <glyph glyph-name="hyphen" unicode="-" horiz-adv-x="342" 
d="M41 338h322l-22 -160h-323z" />
    <glyph glyph-name="period" unicode="." horiz-adv-x="282" 
d="M136 180q39 0 65 -27t26 -66q0 -45 -30.5 -72.5t-76.5 -27.5q-37 0 -62 27t-25 64q0 44 29 73t74 29z" />
    <glyph glyph-name="slash" unicode="/" horiz-adv-x="403" 
d="M357 707h138l-394 -707h-136z" />
    <glyph glyph-name="zero" unicode="0" horiz-adv-x="544" 
d="M321 721q104 0 158 -89q45 -74 45 -186q0 -107 -21 -198q-27 -117 -83 -183q-69 -81 -175 -81q-104 0 -151 101q-35 75 -35 194q0 155 55 279q72 163 207 163zM259 124q58 0 91 140q24 102 24 190q0 49 -7 76q-13 49 -47 49q-58 0 -88 -145q-21 -100 -21 -196
q0 -61 11.5 -87.5t36.5 -26.5z" />
    <glyph glyph-name="one" unicode="1" horiz-adv-x="544" 
d="M158 609q50 21 80 39q43 26 68 57h141l-98 -704h-162l74 503q-38 -31 -60 -42q-33 -17 -72 -17h-7z" />
    <glyph glyph-name="two" unicode="2" horiz-adv-x="544" 
d="M323 494q0 33 -19 53t-51 20q-37 0 -78 -18q-19 -8 -70 -39l22 159q38 24 74 37t77 13q92 0 153 -58t61 -150q0 -55 -36 -129q-29 -60 -82 -131q-41 -55 -88 -107h188l-22 -145h-462l106 136q41 53 83 107q65 85 97 137q47 77 47 115z" />
    <glyph glyph-name="three" unicode="3" horiz-adv-x="544" 
d="M58 182q38 -19 77.5 -31t73.5 -12q44 0 74 21q34 24 34 66q0 45 -34 63q-25 13 -75 13l18 132q50 0 80 14q42 20 42 64q0 32 -27 48.5t-61 16.5q-28 0 -76 -12.5t-78 -25.5l22 144q80 40 163 40q94 0 154.5 -54.5t60.5 -147.5q0 -53 -25.5 -91t-73.5 -65q37 -39 52 -67
q19 -36 19 -82q0 -107 -83 -172q-77 -60 -187 -60q-44 0 -89 15q-33 11 -83 37z" />
    <glyph glyph-name="four" unicode="4" horiz-adv-x="544" 
d="M36 286l319 419h144l-62 -423h71l-19 -116h-68l-24 -167h-159l25 167h-243zM290 281l37 222q-44 -66 -81 -115q-43 -57 -90 -107h134z" />
    <glyph glyph-name="five" unicode="5" horiz-adv-x="544" 
d="M78 191q21 -19 63 -32.5t73 -13.5q40 0 72.5 23t32.5 62q0 52 -46 83q-40 27 -96 27q-14 0 -22.5 -1t-40.5 -7l54 373h332l-20 -149h-180l-15 -101q91 -9 141 -68t50 -152q0 -106 -73 -177t-179 -71q-58 0 -94 12.5t-94 47.5z" />
    <glyph glyph-name="six" unicode="6" horiz-adv-x="544" 
d="M475 706l-178 -275q19 5 30 7.5t25 2.5q66 0 110 -59q40 -53 40 -121q0 -111 -66 -190q-70 -84 -179 -84q-93 0 -151.5 68.5t-58.5 162.5q0 61 31 132q12 28 118 202l93 154h186zM200 204q0 -27 18 -47t46 -20q39 0 64 37q22 32 22 73q0 28 -17.5 47.5t-45.5 19.5
q-39 0 -63 -34.5t-24 -75.5z" />
    <glyph glyph-name="seven" unicode="7" horiz-adv-x="544" 
d="M110 704h437l-283 -704h-168q48 119 74 184q42 104 74 185q48 122 71 187h-226z" />
    <glyph glyph-name="eight" unicode="8" horiz-adv-x="544" 
d="M109 510q0 90 62.5 149.5t152.5 59.5q85 0 141 -52t56 -137q0 -56 -29 -101t-81 -67q46 -33 66.5 -67t20.5 -86q0 -98 -68 -161t-166 -63q-96 0 -153.5 61.5t-57.5 157.5q0 63 31 105q26 34 87 70q-29 29 -44 59q-18 35 -18 72zM270 121q32 0 54 34q19 30 19 66
q0 29 -17 52t-46 23q-34 0 -55 -29.5t-21 -65.5q0 -33 17 -56.5t49 -23.5zM311 430q30 0 50 34q17 29 17 63q0 27 -15 46t-41 19q-35 0 -54.5 -30.5t-19.5 -68.5q0 -63 63 -63z" />
    <glyph glyph-name="nine" unicode="9" horiz-adv-x="544" 
d="M97 -1l178 278q-12 -3 -29 -7t-27 -4q-67 0 -110 61q-38 54 -38 125q0 106 70 185.5t175 79.5q99 0 156 -72q52 -66 52 -167q0 -61 -47 -157q-32 -65 -101 -173q-78 -123 -93 -149h-186zM286 393q38 0 62 33t24 73q0 29 -16.5 49t-45.5 20q-38 0 -62 -33.5t-24 -73.5
q0 -29 16.5 -48.5t45.5 -19.5z" />
    <glyph glyph-name="colon" unicode=":" horiz-adv-x="322" 
d="M177 177q42 0 67.5 -26.5t25.5 -67.5q0 -39 -30 -69t-69 -30q-38 0 -67 27t-29 66q0 42 30 71t72 29zM234 472q32 0 56 -30t24 -62q0 -41 -33 -71t-74 -30q-37 0 -62.5 29.5t-25.5 67.5q0 46 33.5 71t81.5 25z" />
    <glyph glyph-name="semicolon" unicode=";" horiz-adv-x="322" 
d="M27 -70q39 7 63.5 24t41.5 50q-31 15 -43 30q-17 20 -17 51q0 43 28 68t73 25q48 0 76 -38q25 -34 25 -84q0 -99 -84 -161q-75 -56 -178 -56zM228 473q39 0 63.5 -27.5t24.5 -67.5q0 -38 -32.5 -68.5t-71.5 -30.5q-35 0 -62.5 28.5t-27.5 64.5q0 44 30.5 72.5t75.5 28.5z
" />
    <glyph glyph-name="less" unicode="&#x3c;" horiz-adv-x="551" 
d="M527 446l-425 -193l425 -193v-68l-508 230v62l508 230v-68z" />
    <glyph glyph-name="equal" unicode="=" horiz-adv-x="644" 
d="M21 251h673v-104h-673v104zM21 441h673v-103h-673v103z" />
    <glyph glyph-name="greater" unicode="&#x3e;" horiz-adv-x="551" 
d="M25 60l425 193l-425 193v68l508 -230v-62l-508 -230v68z" />
    <glyph glyph-name="question" unicode="?" horiz-adv-x="423" 
d="M228 181q38 0 65 -27t27 -65q0 -40 -29 -71t-70 -31q-36 0 -66 25.5t-30 61.5q0 47 28 77t75 30zM162 669q32 23 63 36q38 16 71 16q75 0 128.5 -52.5t53.5 -126.5q0 -55 -27 -101q-19 -32 -67 -82q-33 -34 -48 -56t-34 -64l-136 1l5 30q10 53 44 105l39 52q19 22 39 44
q27 33 27 49q0 20 -13.5 31.5t-35.5 11.5q-34 0 -70 -15q-30 -12 -64 -36z" />
    <glyph glyph-name="at" unicode="@" horiz-adv-x="1015" 
d="M529 500q-64 0 -110 -67q-41 -60 -41 -128q0 -41 22 -69t62 -28q61 0 107 71q42 65 42 129q0 35 -23.5 63.5t-58.5 28.5zM662 556h69q-37 -123 -73 -246q-7 -26 -12.5 -49.5t-5.5 -30.5q0 -12 2.5 -20.5t18.5 -8.5q60 0 104 80q38 70 38 136q0 117 -80 187.5t-199 70.5
q-132 0 -218 -93t-86 -227q0 -132 89 -222t223 -90q70 0 134.5 30t107.5 84h67q-49 -82 -132 -129t-180 -47q-160 0 -271 110t-111 270q0 155 110.5 265.5t266.5 110.5q139 0 239 -85q105 -90 105 -227q0 -101 -68 -191q-74 -98 -171 -98q-28 0 -46 17t-18 46
q-26 -28 -57.5 -45.5t-64.5 -17.5q-64 0 -105.5 47.5t-41.5 112.5q0 105 62 187q67 89 169 89q39 0 68.5 -20.5t46.5 -57.5z" />
    <glyph glyph-name="A" unicode="A" horiz-adv-x="583" 
d="M288 705h169l118 -706h-173l-16 132h-202l-59 -131h-173zM372 256q0 48 -12.5 140t-12.5 132q-21 -63 -52 -137q-22 -53 -60 -135h137z" />
    <glyph glyph-name="B" unicode="B" horiz-adv-x="583" 
d="M121 705h212q92 0 152 -40q70 -47 70 -134q0 -54 -22.5 -86.5t-73.5 -61.5q64 -31 92 -69q32 -42 32 -109q0 -97 -76 -154q-69 -52 -170 -52h-320zM276 134q61 0 94 18q44 24 44 80q0 36 -23 55q-29 24 -97 24h-69l-24 -176zM284 436q41 0 68 16q33 20 33 58q0 37 -30 53
q-23 12 -63 12l-27 -1l-20 -138h39z" />
    <glyph glyph-name="C" unicode="C" horiz-adv-x="604" 
d="M634 555q-30 4 -61 8.5t-60 4.5q-126 0 -210 -63q-93 -70 -93 -192q0 -82 49 -132t132 -50q61 0 144 40q55 29 80 42l-25 -185q-64 -25 -111.5 -37.5t-103.5 -12.5q-151 0 -242 85q-94 88 -94 238q0 199 132 314q126 110 328 110q75 0 158 -16z" />
    <glyph glyph-name="D" unicode="D" horiz-adv-x="664" 
d="M113 705h231q148 0 241.5 -93.5t93.5 -241.5q0 -166 -95 -267t-260 -101h-313zM273 147q112 0 172.5 56.5t60.5 168.5q0 106 -76 149q-60 34 -173 34l-59 -408h75z" />
    <glyph glyph-name="E" unicode="E" horiz-adv-x="544" 
d="M118 705h453l-21 -145h-288l-15 -124h260l-21 -146h-260l-21 -143h338l-19 -148h-508z" />
    <glyph glyph-name="F" unicode="F" horiz-adv-x="463" 
d="M125 705h421l-21 -145h-255l-21 -134h228l-21 -147h-229l-40 -279h-167z" />
    <glyph glyph-name="G" unicode="G" horiz-adv-x="704" 
d="M719 553q-49 9 -84 13.5t-75 4.5q-138 0 -234 -55q-118 -68 -118 -197q0 -94 68 -146q62 -47 159 -47q14 0 33.5 2t33.5 4l13 117h-139l19 133h303l-54 -381q-49 -12 -106.5 -16.5t-121.5 -4.5q-161 0 -266 81q-115 89 -115 246q0 205 160 319q141 100 355 100
q55 0 104.5 -4.5t87.5 -18.5z" />
    <glyph glyph-name="H" unicode="H" horiz-adv-x="704" 
d="M110 706h167l-41 -280h297l42 278h165l-100 -706h-168l40 281h-294l-43 -279h-165z" />
    <glyph glyph-name="I" unicode="I" horiz-adv-x="262" 
d="M133 708h168l-100 -707h-168z" />
    <glyph glyph-name="J" unicode="J" horiz-adv-x="382" 
d="M11 161q42 -20 80 -20q47 0 71.5 23.5t31.5 70.5l68 471h167l-78 -539q-11 -79 -77 -133t-146 -54q-34 0 -70 9.5t-65 26.5z" />
    <glyph glyph-name="K" unicode="K" horiz-adv-x="624" 
d="M113 705h166l-40 -282l246 282h196l-293 -318l251 -389h-198l-210 355l-52 -354h-167z" />
    <glyph glyph-name="L" unicode="L" 
d="M123 704h168l-81 -558h282l-22 -146h-448z" />
    <glyph glyph-name="M" unicode="M" horiz-adv-x="865" 
d="M172 705l176 -1q7 -37 34 -157q21 -96 31 -157q14 -89 14 -160q29 79 65 161q27 61 74 157q38 78 77 157h169l34 -707h-167q0 43 -10 183q-5 70 -5 111q0 40 2.5 101t2.5 70l-25 -67q-11 -28 -27 -63q-10 -20 -19 -39l-142 -295h-119q-42 233 -83 466q-29 -116 -63 -234
q-29 -99 -71 -232h-162z" />
    <glyph glyph-name="N" unicode="N" horiz-adv-x="704" 
d="M111 706h162q32 -64 83 -159t83 -159q49 -96 77 -162q7 77 18 158t23.5 172t18.5 149h165l-102 -706h-163q-43 80 -85 161q-56 107 -83 161q-38 77 -77 166q0 -103 -21 -234.5t-40 -252.5h-162z" />
    <glyph glyph-name="O" unicode="O" horiz-adv-x="745" 
d="M419 725q149 0 245 -90t96 -238q0 -173 -109 -294q-113 -125 -284 -125q-152 0 -241.5 90.5t-89.5 241.5q0 175 103 292q108 123 280 123zM375 131q97 0 161 85q58 77 58 177q0 76 -48 128.5t-123 52.5q-97 0 -161 -78q-60 -73 -60 -173q0 -85 43 -136q47 -56 130 -56z
" />
    <glyph glyph-name="P" unicode="P" horiz-adv-x="523" 
d="M124 707h208q98 0 166 -53q74 -58 74 -153q0 -125 -82 -184q-70 -50 -201 -50l-63 3l-38 -269h-168zM269 394q56 0 89 19q42 24 42 77q0 48 -44 67q-32 14 -86 14l-22 -176z" />
    <glyph glyph-name="Q" unicode="Q" horiz-adv-x="724" 
d="M626 -86q40 0 81 6l-135 -150q-85 27 -144 59q-67 36 -127 90q-13 12 -41.5 40.5t-40.5 40t-37 27.5q-31 20 -38 26q-49 40 -78 116t-29 146q0 174 103 290q108 121 280 121q153 0 246 -90t93 -242q0 -138 -76 -250q-80 -117 -209 -152l-30 -6q48 -36 84 -52
q46 -20 98 -20zM377 131q98 0 161 80q58 74 58 176q0 81 -47 135.5t-126 54.5q-96 0 -159.5 -76.5t-63.5 -174.5q0 -89 44.5 -142t132.5 -53z" />
    <glyph glyph-name="R" unicode="R" horiz-adv-x="583" 
d="M114 708h246q87 0 150.5 -56.5t63.5 -141.5q0 -78 -37 -125q-33 -42 -109 -72q25 -13 45 -36q17 -19 32 -49q56 -115 113 -230h-189l-91 199q-20 44 -43 66q-30 29 -71 29l-40 -293h-170zM269 413q56 0 89 15q46 21 46 70q0 43 -39 64q-31 17 -78 17l-24 -1l-22 -165h28z
" />
    <glyph glyph-name="S" unicode="S" horiz-adv-x="483" 
d="M24 199q60 -36 88 -50q59 -29 96 -29t62 17q29 20 29 56q0 40 -57 89q-101 87 -108 95q-58 66 -58 145q0 87 74 147q70 56 160 56q39 0 97.5 -17t93.5 -37l-21 -141q-62 32 -74 37q-48 21 -80 21q-34 0 -58 -15.5t-24 -47.5q0 -31 58 -79q91 -75 108 -94q58 -66 58 -143
q0 -98 -67.5 -162.5t-167.5 -64.5q-67 0 -125 18q-42 13 -117 50z" />
    <glyph glyph-name="T" unicode="T" 
d="M63 706h541l-20 -145h-184l-85 -561h-165l80 561h-187z" />
    <glyph glyph-name="U" unicode="U" horiz-adv-x="664" 
d="M107 707h169l-65 -445l-1 -21q0 -54 39 -83q34 -25 90 -25q71 0 108 47q30 38 41 114l54 371l4 39l166 -1l-66 -465q-18 -124 -102 -191t-211 -67q-123 0 -201 61q-86 67 -86 187v19t2 21l21 147q12 76 22 152t16 140z" />
    <glyph glyph-name="V" unicode="V" horiz-adv-x="544" 
d="M231 706q6 -38 24 -153q15 -95 23.5 -167.5t8.5 -139.5q11 48 30 103q9 27 37 96.5t55 132.5q9 20 57 128h176l-323 -705h-130l-129 705h171z" />
    <glyph glyph-name="W" unicode="W" horiz-adv-x="845" 
d="M206 706q17 -110 34.5 -229t17.5 -214q37 99 57 150q35 89 62 150t69 142h103q25 -96 45 -215q17 -103 30 -219l11 39q19 62 45 133q17 46 51 131q26 65 53 131h167l-298 -705h-118q-35 188 -40 217q-19 111 -31 219q-40 -100 -60 -147q-30 -71 -64 -145
q-10 -22 -68 -144h-111l-118 706h163z" />
    <glyph glyph-name="X" unicode="X" horiz-adv-x="685" 
d="M255 363l-208 344h203l122 -224q41 58 84 113q10 12 90 110h207q-66 -63 -152 -170l-144 -180l218 -357h-202l-131 237l-174 -235h-207z" />
    <glyph glyph-name="Y" unicode="Y" horiz-adv-x="523" 
d="M240 707l69 -260q24 53 49 99q19 36 93 161h177l-257 -406l-41 -301h-170l45 306l-144 401h179z" />
    <glyph glyph-name="Z" unicode="Z" horiz-adv-x="583" 
d="M362 566h-306l21 142h588q-61 -81 -138 -186q-65 -89 -135.5 -186t-138.5 -192h313l-21 -145h-589q100 142 201 285q109 154 205 282z" />
    <glyph glyph-name="bracketleft" unicode="[" horiz-adv-x="342" 
d="M158 708h284l-20 -134h-127l-95 -656h128l-18 -133h-284z" />
    <glyph glyph-name="backslash" unicode="\" horiz-adv-x="278" 
d="M-17 737h66l246 -756h-67z" />
    <glyph glyph-name="bracketright" unicode="]" horiz-adv-x="342" 
d="M-61 -81h127l94 655h-126l20 133h281l-132 -922h-283z" />
    <glyph glyph-name="asciicircum" unicode="^" horiz-adv-x="0" 
d="M35 926h179l66 -170h-103l-59 87l-115 -87h-119z" />
    <glyph glyph-name="underscore" unicode="_" horiz-adv-x="556" 
d="M0 -125v50h556v-50h-556z" />
    <glyph glyph-name="grave" unicode="`" horiz-adv-x="0" 
d="M37 706l116 -181h-100l-196 181h180z" />
    <glyph glyph-name="a" unicode="a" 
d="M435 -1h-143l5 40q-48 -47 -110 -47q-78 0 -123 64q-40 57 -40 139q0 125 90 202q85 73 213 73q31 0 69.5 -3.5t105.5 -13.5zM343 340l-29 2q-60 0 -103 -44t-43 -105q0 -31 18 -55.5t48 -24.5q26 0 53 16q7 4 29 20z" />
    <glyph glyph-name="b" unicode="b" 
d="M121 706h143l-42 -281q25 20 54.5 32.5t59.5 12.5q80 0 126 -64q41 -57 41 -140q0 -134 -86 -208q-82 -70 -219 -70q-46 0 -85 4.5t-91 15.5zM218 119q61 0 99 37t38 99q0 37 -16 61q-19 29 -54 29q-19 0 -40.5 -11t-37.5 -27l-28 -185z" />
    <glyph glyph-name="c" unicode="c" horiz-adv-x="403" 
d="M422 322q-31 8 -43 10q-24 5 -44 5q-68 0 -111 -32q-49 -37 -49 -103q0 -38 25 -61t64 -23q34 0 71 12t75 31l-22 -150q-40 -13 -72 -19t-65 -6q-101 0 -162.5 59.5t-61.5 159.5q0 115 84.5 191.5t200.5 76.5q62 0 131 -16z" />
    <glyph glyph-name="d" unicode="d" 
d="M397 706h141l-101 -703q-88 -16 -166 -16q-106 0 -173 57q-71 61 -71 166q0 127 90 195q80 61 212 61l33 -1zM343 340h-28q-59 0 -101 -36t-42 -94q0 -56 45 -79q33 -17 95 -17z" />
    <glyph glyph-name="e" unicode="e" horiz-adv-x="463" 
d="M168 205q0 -53 33.5 -81.5t86.5 -28.5q35 0 65 8.5t74 26.5l-19 -116q-36 -14 -68.5 -21.5t-67.5 -7.5q-107 0 -174 57q-72 61 -72 166q0 108 67 186q71 82 177 82q86 0 141 -56t55 -143q0 -18 -1 -36t-4 -36h-293zM331 289v12q0 30 -17 55.5t-45 25.5q-33 0 -58 -31
q-19 -23 -32 -62h152z" />
    <glyph glyph-name="f" unicode="f" horiz-adv-x="282" 
d="M32 461h74q6 61 16 92q14 44 45.5 82t76.5 60t94 22q23 0 52 -6q14 -3 52 -13l-17 -124q-27 7 -58 7q-64 0 -88 -30q-17 -21 -29 -91h91l-15 -117h-95l-51 -342h-143l52 341h-76z" />
    <glyph glyph-name="g" unicode="g" horiz-adv-x="442" 
d="M15 59q0 32 23.5 57.5t56.5 30.5q-36 44 -45 58q-21 34 -21 70q0 86 58 140t145 54q11 0 35 -4t36 -4h201l-9 -103h-78q15 -33 15 -70q0 -79 -57 -131.5t-137 -52.5q-20 0 -33 1t-29 7q-2 -4 -6 -11.5t-4 -10.5q0 -18 66 -34q89 -22 123 -42q67 -40 67 -115
q0 -83 -74 -126q-61 -35 -150 -35q-87 0 -146 21q-89 31 -89 101q0 43 33 73q22 20 71 43q-23 12 -37.5 34.5t-14.5 48.5zM92 -117q0 -26 36 -38q24 -8 58 -8q36 0 55 6q32 10 32 39q0 21 -44 36q-7 2 -64 16q-47 -16 -56 -22q-17 -12 -17 -29zM224 200q35 0 55 37
q16 30 16 69q0 25 -14.5 41.5t-38.5 16.5q-39 0 -59 -37q-16 -30 -16 -73q0 -23 16.5 -38.5t40.5 -15.5z" />
    <glyph glyph-name="h" unicode="h" 
d="M124 707h139l-40 -307q34 36 58 51q32 19 74 19q57 0 92 -36t35 -93l-3 -45l-45 -296h-142l41 269q2 11 3.5 19t1.5 13q0 21 -11 37.5t-31 16.5q-22 0 -51 -25q-20 -17 -40 -45l-42 -284h-141z" />
    <glyph glyph-name="i" unicode="i" horiz-adv-x="241" 
d="M102 460h140l-68 -459h-141zM113 581q0 34 23.5 57.5t57.5 23.5q31 0 52 -21t21 -53q0 -36 -23 -59t-59 -23q-32 0 -52 21t-20 54z" />
    <glyph glyph-name="j" unicode="j" horiz-adv-x="241" 
d="M-115 -93q26 -6 50 -6q33 0 55 28q19 24 24 60l70 472h141l-75 -523q-10 -70 -60.5 -112.5t-121.5 -42.5q-27 0 -36 1t-66 9zM175 667q32 0 54 -23t22 -55q0 -33 -23 -57t-57 -24q-32 0 -54.5 22.5t-22.5 55.5q0 35 23 58t58 23z" />
    <glyph glyph-name="k" unicode="k" 
d="M123 708h140q-10 -87 -19 -153q-12 -92 -21 -153q-12 -77 -23 -153l152 211h177l-182 -219l168 -241h-173q-11 18 -55 88q-61 96 -88 152l-36 -240h-141z" />
    <glyph glyph-name="l" unicode="l" horiz-adv-x="241" 
d="M137 708h142l-104 -708h-141z" />
    <glyph glyph-name="m" unicode="m" horiz-adv-x="764" 
d="M71 461h142l-13 -67q48 40 67 52q41 25 82 25q38 0 67.5 -20.5t41.5 -56.5q50 41 72 53q41 23 86 23q56 0 92.5 -34.5t36.5 -91.5q0 -37 -5 -74t-7 -52l-33 -218h-145q5 36 19 116q22 130 22 197q0 15 -10.5 22.5t-26.5 7.5q-26 0 -56 -26q-25 -22 -41 -49l-40 -268h-143
l30 190q5 30 8.5 60t3.5 56q0 36 -36 36q-28 0 -55 -21q-16 -13 -42 -45q-11 -64 -26 -171q-8 -60 -14 -104h-143z" />
    <glyph glyph-name="n" unicode="n" 
d="M86 459h141l-7 -57l46 38q38 29 90 29q55 0 90.5 -34.5t35.5 -90.5q0 -69 -17 -173q-25 -152 -27 -172h-145l33 206q4 29 7.5 60t3.5 53q0 16 -13 25.5t-29 9.5q-24 0 -52 -25q-17 -16 -39 -45l-43 -283h-144z" />
    <glyph glyph-name="o" unicode="o" 
d="M279 476q93 0 157.5 -62.5t64.5 -155.5q0 -111 -67 -189q-70 -82 -179 -82q-106 0 -169 57t-63 163q0 116 70.5 192.5t185.5 76.5zM247 110q52 0 81 52q24 43 24 100q0 39 -18 64q-21 29 -58 29q-51 0 -82 -52q-26 -44 -26 -99q0 -42 19.5 -68t59.5 -26z" />
    <glyph glyph-name="p" unicode="p" 
d="M84 460q52 7 86.5 11t69.5 4q111 0 180 -56q75 -61 75 -169q0 -110 -79 -183t-192 -73q-29 0 -66 5l-36 -243h-142zM201 120q64 0 105.5 35t41.5 98q0 55 -44 77q-33 17 -93 17l-36 -227h26z" />
    <glyph glyph-name="q" unicode="q" horiz-adv-x="483" 
d="M405 -244h-142l40 283q-30 -25 -51 -35q-29 -14 -61 -14q-78 0 -125 64q-42 57 -42 139q0 135 81.5 207.5t217.5 72.5q45 0 86 -4.5t96 -14.5zM344 340l-32 2q-63 0 -103 -38t-40 -101q0 -35 21 -61t55 -26q19 0 39 12q23 17 34 24z" />
    <glyph glyph-name="r" unicode="r" horiz-adv-x="342" 
d="M93 460h144l-17 -71q46 54 58 63q23 17 49 17q24 0 41 -7t40 -24l-59 -138q-15 7 -37 14t-33 7q-16 0 -36 -12q-8 -5 -31 -23l-41 -286h-143z" />
    <glyph glyph-name="s" unicode="s" horiz-adv-x="363" 
d="M26 146q29 -13 63.5 -23t61.5 -10q14 0 28.5 8t14.5 21q0 21 -78.5 70.5t-78.5 121.5q0 68 54 109q49 37 121 37q38 0 72 -11q22 -7 67 -29l-10 -124q-25 13 -62 27q-46 17 -65 17q-11 0 -21.5 -7t-10.5 -17q0 -11 78 -66t78 -125q0 -68 -50.5 -112.5t-118.5 -44.5
q-37 0 -82 14t-86 34z" />
    <glyph glyph-name="t" unicode="t" horiz-adv-x="322" 
d="M34 461h71l17 110h142l-15 -110h96l-16 -118l-98 -1l-15 -84q-9 -50 -9 -85q0 -21 10.5 -35t31.5 -14q18 0 34 6.5t39 19.5l-20 -136q-26 -11 -47 -17t-44 -6q-74 0 -110.5 46t-36.5 122q0 39 8.5 88.5t16.5 95.5h-74z" />
    <glyph glyph-name="u" unicode="u" 
d="M233 461q-5 -38 -14 -92l-17 -102q-4 -27 -7.5 -58.5t-3.5 -52.5q0 -20 9.5 -35t29.5 -15q26 0 53 26q30 34 42 47l39 281h144l-66 -460h-143l11 64q-28 -35 -64 -54.5t-80 -19.5q-52 0 -86.5 36.5t-34.5 90.5q0 17 3.5 44t5.5 41q18 129 36 259h143z" />
    <glyph glyph-name="v" unicode="v" horiz-adv-x="423" 
d="M173 461q34 -161 35 -170q8 -52 8 -105q29 71 60 139t68 136h142l-237 -461h-118l-101 461h143z" />
    <glyph glyph-name="w" unicode="w" horiz-adv-x="664" 
d="M161 460l32 -249l119 249h109l42 -239l117 239h143l-238 -461l-106 1q-6 43 -17 102q-21 114 -21 171l-128 -273h-100l-97 460h145z" />
    <glyph glyph-name="x" unicode="x" horiz-adv-x="483" 
d="M152 248l-130 212h168l62 -121q47 60 94 121h166l-189 -223l152 -238h-170l-77 133l-106 -132h-171z" />
    <glyph glyph-name="y" unicode="y" horiz-adv-x="423" 
d="M156 462q34 -133 69 -266q22 67 48 133q23 58 54 132h156l-310 -684h-156l123 259l-144 426h160z" />
    <glyph glyph-name="z" unicode="z" horiz-adv-x="423" 
d="M204 338h-178l20 124h412l-244 -341h202l-20 -123h-429z" />
    <glyph glyph-name="braceleft" unicode="{" horiz-adv-x="334" 
d="M42 294q55 0 72 67q8 32 8 112l-1 43q0 94 11 131q22 75 93 75h67v-65h-44q-27 0 -36.5 -25t-9.5 -57v-113l-1 -57q0 -43 -23 -84q-26 -46 -64 -56q55 -18 75 -83q13 -43 13 -118l-1 -87q0 -45 5 -66q10 -42 42 -42h44v-65h-67q-47 0 -74.5 40t-27.5 89v171q0 47 -17 83
q-22 47 -64 47v60z" />
    <glyph glyph-name="bar" unicode="|" horiz-adv-x="260" 
d="M94 737h73v-756h-73v756z" />
    <glyph glyph-name="braceright" unicode="}" horiz-adv-x="334" 
d="M292 234q-41 0 -63 -47q-18 -38 -18 -83v-171q0 -50 -25 -87q-29 -42 -77 -42h-67v65h44q31 0 41 41q5 21 5 67l-1 86q0 76 13 118q20 65 76 82q-38 11 -63 55t-25 86v171q0 34 -7 52q-11 30 -39 30h-44v65h67q64 0 88 -64q16 -42 16 -127q0 -16 -0.5 -30.5t-0.5 -27.5
q0 -79 8 -111q17 -68 72 -68v-60z" />
    <glyph glyph-name="asciitilde" unicode="~" horiz-adv-x="0" 
d="M20 920q34 0 90 -33t70 -33q19 0 29 14q7 10 12 32h98q-9 -61 -44 -105q-40 -51 -97 -51q-30 0 -69 19q-87 43 -89 43q-25 0 -34 -12.5t-12 -38.5l-96 -1q14 74 41 113q37 53 101 53z" />
    <glyph glyph-name="c128" horiz-adv-x="524" 
d="M425 505l-73 -132h160v-53h-189l-76 -135h265v-53h-294l-87 -156l-48 27l72 129h-152v53h182l75 135h-257v53h287l88 160z" />
    <glyph glyph-name="c129" horiz-adv-x="682" 
d="M516 392q56 0 96.5 -39.5t40.5 -94.5q0 -54 -38.5 -95.5t-93.5 -41.5q-44 0 -82 19q-21 11 -108 83q-68 -60 -85 -71q-49 -32 -106 -32q-54 0 -92.5 42t-38.5 97t41 94t95 39q49 0 101 -34q27 -17 85 -70q56 50 84 69q53 35 101 35zM147 342q-37 0 -62 -27t-25 -65
q0 -35 27 -58.5t63 -23.5q43 0 83 28q14 10 68 60q-48 41 -71 56q-46 30 -83 30zM514 167q36 0 63.5 24.5t27.5 59.5q0 36 -25.5 63.5t-61.5 27.5q-37 0 -83 -30q-23 -15 -71 -56q51 -48 67 -60q41 -29 83 -29z" />
    <glyph glyph-name="c141" horiz-adv-x="585" 
d="M577 0h-584l310 667zM57 48h399l-188 453z" />
    <glyph glyph-name="c142" horiz-adv-x="472" 
d="M196 0l-189 366l189 357h58l188 -357l-188 -366h-58zM225 670l-159 -304l159 -314l159 314z" />
    <glyph glyph-name="c143" horiz-adv-x="646" 
 />
    <glyph glyph-name="nonbreakingspace" unicode="&#xa0;" horiz-adv-x="262" 
 />
    <glyph glyph-name="exclamdown" unicode="&#xa1;" horiz-adv-x="322" 
d="M135 472h112v-86l-2 -84v-36q0 -115 -15 -176q-25 -103 -93 -103q-44 0 -62.5 29.5t-18.5 76.5v19t4 27zM210 722q39 0 66 -29t27 -67q0 -39 -32 -67t-72 -28q-39 0 -64.5 27.5t-25.5 65.5q0 39 30.5 68.5t70.5 29.5z" />
    <glyph glyph-name="cent" unicode="&#xa2;" horiz-adv-x="403" 
d="M290 333q-53 -11 -84 -44t-31 -86q0 -37 23 -61t60 -24zM443 456l-21 -134q-20 4 -41 9t-37 5l-32 -214q23 5 48 15t50 23l-22 -150q-32 -10 -52 -15t-45 -8l-11 -72h-53l11 70q-95 0 -153 61t-58 158q0 115 84 191.5t200 76.5l10 64h53l-10 -67q44 -5 79 -13z" />
    <glyph glyph-name="sterling" unicode="&#xa3;" horiz-adv-x="523" 
d="M113 258h-82l23 136h100q22 93 44 148q34 86 80 132q58 57 139 57q30 0 63 -9q5 -1 36 -12l-5 -147q-24 7 -36 10q-23 6 -37 6q-40 0 -67 -43q-12 -20 -50 -143h96l-20 -136h-115l-28 -104q23 0 96 -14q36 -7 60 -7q29 0 62.5 10t66.5 25l-23 -162q-44 -23 -96 -23
q-32 0 -141 15q-51 7 -85 7q-36 0 -74 -6t-89 -16z" />
    <glyph glyph-name="section" unicode="&#xa7;" horiz-adv-x="483" 
d="M135 -22q12 -34 26 -51q20 -24 50 -24q19 0 32.5 11.5t13.5 31.5q0 29 -58 77q-90 75 -109 95q-59 64 -59 130q0 60 33 104q29 39 86 69l12 7q-22 24 -34.5 54t-12.5 61q0 81 63 132q58 47 141 47q73 0 122 -45t59 -117l2 -15l-131 -30q-5 31 -19 51q-17 25 -46 25
q-19 0 -30 -14.5t-11 -33.5q0 -28 56 -72q83 -65 106 -93q57 -68 57 -150q0 -60 -29.5 -101t-87.5 -70q45 -48 45 -109q0 -77 -64 -126q-60 -46 -139 -46q-77 0 -129 46q-46 40 -76 118zM294 130q26 21 38.5 40.5t12.5 48.5q0 30 -41 75q-18 20 -67 63q-29 -15 -43 -31
q-20 -22 -20 -50q0 -36 45 -81q56 -48 75 -65z" />
    <glyph glyph-name="dieresis" unicode="&#xa8;" horiz-adv-x="0" 
d="M-35 704q35 0 59 -23t24 -59q0 -37 -25 -60t-62 -23q-32 0 -56.5 24.5t-24.5 57.5q0 35 25 59t60 24zM91 627q0 33 26 56t59 23q36 0 59 -24t23 -60q0 -35 -24 -58t-59 -23q-36 0 -60 25t-24 61z" />
    <glyph glyph-name="copyright" unicode="&#xa9;" horiz-adv-x="755" 
d="M511 502l4 -124h-20q-8 44 -39.5 72.5t-76.5 28.5q-61 0 -98 -54q-33 -48 -33 -112q0 -68 31 -107q35 -44 101 -44q49 0 81 19q4 3 45 32l11 -16q-36 -36 -64 -52q-37 -20 -81 -20q-84 0 -135 52t-51 135q0 80 51 136.5t130 56.5q18 0 38 -5q53 -13 64 -13q19 0 23 15h19
zM367 655q139 0 237 -98t98 -237t-98 -237t-237 -98t-237 98t-98 237t98 237t237 98zM367 24q122 0 209 87t87 209t-87 209t-209 87t-209 -87t-87 -209t87 -209t209 -87z" />
    <glyph glyph-name="guillemotleft" unicode="&#xab;" horiz-adv-x="382" 
d="M149 416l112 1l-133 -176l67 -150h-98l-76 159zM325 416h112l-129 -174l70 -152h-100l-77 165z" />
    <glyph glyph-name="logicalnot" unicode="&#xac;" horiz-adv-x="682" 
d="M0 279h645v-279h-54v226h-591v53z" />
    <glyph glyph-name="registered" unicode="&#xae;" horiz-adv-x="755" 
d="M366 -19q-138 0 -236.5 97.5t-98.5 236.5t98 237t237 98q138 0 236.5 -98.5t98.5 -236.5t-98 -236t-237 -98zM365 611q-123 0 -209 -87t-86 -210t87 -209t209 -86t209 87t87 209t-87 209t-210 87zM316 192q0 -16 13 -22t32 -6v-18h-155v18q17 0 29 4q19 7 19 21v280
q0 18 -6.5 23.5t-21.5 5.5h-15v17h166q55 0 88 -17q44 -23 44 -73q0 -42 -28 -70t-70 -28l117 -149q11 -14 34 -14v-18h-92l-129 172h-25v-126zM316 340q54 0 83 12q45 19 45 66q0 39 -17 55t-58 20l-33 2q-8 0 -14.5 -6t-6.5 -14z" />
    <glyph glyph-name="degree" unicode="&#xb0;" horiz-adv-x="262" 
d="M178 373q-60 0 -103 42t-43 103q0 59 43 102t103 43t103 -42t43 -103q0 -60 -43.5 -102.5t-102.5 -42.5zM177 625q-45 0 -75.5 -31.5t-30.5 -75.5t31 -75t76 -31q43 0 75 31t32 75q0 43 -32 75t-76 32z" />
    <glyph glyph-name="plusminus" unicode="&#xb1;" horiz-adv-x="524" 
d="M228 396v230h53v-230h230v-54h-230v-229h-53v229h-230v54h230zM-2 0v53h513v-53h-513z" />
    <glyph glyph-name="acute" unicode="&#xb4;" horiz-adv-x="0" 
d="M72 705h185q-41 -29 -101 -88q-79 -76 -98 -93h-102z" />
    <glyph glyph-name="mu" unicode="&#xb5;" horiz-adv-x="551" 
d="M131 485v-322q0 -49 20 -78q24 -34 71 -34q32 0 64 22t45 52v360h84v-372q0 -29 12.5 -55.5t38.5 -26.5q27 0 38 22q9 31 15 46l19 -1q-13 -51 -38 -80q-30 -34 -80 -34q-42 0 -63 28q-15 21 -26 69q-22 -37 -66.5 -67t-84.5 -30q-30 0 -53 14q-28 21 -45 33v-22
q0 -25 21 -97q11 -38 11 -59q0 -27 -10 -45q-13 -24 -37 -24q-23 0 -35 21.5t-12 46.5q0 26 8 59q19 78 19 98v476h84z" />
    <glyph glyph-name="paragraph" unicode="&#xb6;" horiz-adv-x="667" 
d="M539 706v-54h-34v-819h-58v819h-144v-819h-58v486q-74 12 -115.5 62.5t-41.5 125.5q0 96 61.5 147.5t159.5 51.5h230z" />
    <glyph glyph-name="periodcentered" unicode="&#xb7;" horiz-adv-x="165" 
d="M142 373q32 0 53.5 -23.5t21.5 -56.5t-23 -56t-56 -23q-31 0 -54 23t-23 55q0 35 23 58t58 23z" />
    <glyph glyph-name="periodcentered" unicode="&#x2219;" horiz-adv-x="165" 
d="M142 373q32 0 53.5 -23.5t21.5 -56.5t-23 -56t-56 -23q-31 0 -54 23t-23 55q0 35 23 58t58 23z" />
    <glyph glyph-name="cedilla" unicode="&#xb8;" horiz-adv-x="0" 
d="M-134 -171l9 -1q35 0 55 7q33 12 33 40q0 15 -10 26q-6 6 -24 17l52 91h66l-23 -53q30 -9 47.5 -31.5t17.5 -53.5q0 -63 -65 -100q-55 -31 -124 -31l-57 3z" />
    <glyph glyph-name="guillemotright" unicode="&#xbb;" horiz-adv-x="382" 
d="M112 261l-72 159l99 -4l80 -164l-126 -163h-112zM292 266l-69 150h98l78 -158l-130 -168h-111z" />
    <glyph glyph-name="questiondown" unicode="&#xbf;" horiz-adv-x="423" 
d="M332 472q-7 -39 -14 -63.5t-21 -50.5q-56 -71 -87.5 -112.5t-31.5 -56.5q0 -22 16.5 -32.5t40.5 -10.5q26 0 62 16t64 36l-24 -157q-39 -26 -65 -37q-37 -16 -73 -16q-71 0 -124 52t-53 124q0 78 68 162q91 112 105 146h137zM280 721q39 0 66 -28t27 -67q0 -40 -32 -68.5
t-73 -28.5q-38 0 -64 26t-26 65q0 43 29 72t73 29z" />
    <glyph glyph-name="Agrave" unicode="&#xc0;" horiz-adv-x="583" 
d="M374 924l65 -178h-100l-158 178h193zM288 705h169l118 -706h-173l-16 132h-202l-59 -131h-173zM372 256q0 48 -12.5 140t-12.5 132q-21 -63 -52 -137q-22 -53 -60 -135h137z" />
    <glyph glyph-name="Aacute" unicode="&#xc1;" horiz-adv-x="583" 
d="M340 923h204l-194 -179h-102zM288 705h169l118 -706h-173l-16 132h-202l-59 -131h-173zM372 256q0 48 -12.5 140t-12.5 132q-21 -63 -52 -137q-22 -53 -60 -135h137z" />
    <glyph glyph-name="Acircumflex" unicode="&#xc2;" horiz-adv-x="583" 
d="M296 926h178l67 -170h-104l-59 87l-115 -87h-118zM288 705h169l118 -706h-173l-16 132h-202l-59 -131h-173zM372 256q0 48 -12.5 140t-12.5 132q-21 -63 -52 -137q-22 -53 -60 -135h137z" />
    <glyph glyph-name="Atilde" unicode="&#xc3;" horiz-adv-x="583" 
d="M281 920q35 0 90 -33t69 -33q20 0 29 12.5t12 33.5h99q-19 -72 -44 -106q-36 -50 -97 -50q-36 0 -91 31.5t-67 31.5q-25 0 -35.5 -13.5t-10.5 -38.5h-97q14 73 41 112q37 53 102 53zM288 705h169l118 -706h-173l-16 132h-202l-59 -131h-173zM372 256q0 48 -12.5 140
t-12.5 132q-21 -63 -52 -137q-22 -53 -60 -135h137z" />
    <glyph glyph-name="Adieresis" unicode="&#xc4;" horiz-adv-x="583" 
d="M288 705h169l118 -706h-173l-16 132h-202l-59 -131h-173zM372 256q0 48 -12.5 140t-12.5 132q-21 -63 -52 -137q-22 -53 -60 -135h137zM285 925q32 0 57.5 -22.5t25.5 -53.5q0 -35 -22 -62t-56 -27q-37 0 -63 21.5t-26 57.5q0 37 23.5 61.5t60.5 24.5zM491 924
q36 0 60.5 -23.5t24.5 -59.5q0 -31 -25 -56t-57 -25q-34 0 -59.5 24.5t-25.5 57.5t24.5 57.5t57.5 24.5z" />
    <glyph glyph-name="Aring" unicode="&#xc5;" horiz-adv-x="583" 
d="M288 705h169l118 -706h-173l-16 132h-202l-59 -131h-173zM372 256q0 48 -12.5 140t-12.5 132q-21 -63 -52 -137q-22 -53 -60 -135h137zM391 928q41 0 69.5 -26.5t28.5 -66.5q0 -46 -31.5 -76.5t-78.5 -30.5q-45 0 -71.5 29.5t-26.5 75.5q0 40 34.5 67.5t75.5 27.5z
M381 798q14 0 24 9t10 24q0 11 -7 20t-19 9q-14 0 -25 -10t-11 -25q0 -11 8 -19t20 -8z" />
    <glyph glyph-name="AE" unicode="&#xc6;" horiz-adv-x="946" 
d="M392 704h557l-18 -144h-287l-18 -123h261l-24 -147h-258l-20 -145h360l-21 -147h-522l23 164h-196l-100 -162h-193zM444 288l46 308q-22 -42 -58 -104q-23 -39 -61 -100t-65 -104h138z" />
    <glyph glyph-name="Ccedilla" unicode="&#xc7;" horiz-adv-x="604" 
d="M147 -171l9 -1q35 0 55 7q33 12 33 40q0 12 -4.5 18t-29.5 25l51 91h66l-22 -52q30 -11 47.5 -32.5t17.5 -52.5q0 -64 -64 -101q-54 -31 -122 -31l-60 3zM634 555q-30 4 -61 8.5t-60 4.5q-126 0 -210 -63q-93 -70 -93 -192q0 -82 49 -132t132 -50q61 0 144 40
q55 29 80 42l-25 -185q-64 -25 -111.5 -37.5t-103.5 -12.5q-151 0 -242 85q-94 88 -94 238q0 199 132 314q126 110 328 110q75 0 158 -16z" />
    <glyph glyph-name="Egrave" unicode="&#xc8;" horiz-adv-x="544" 
d="M361 924l65 -178h-100l-158 178h193zM118 705h453l-21 -145h-288l-15 -124h260l-21 -146h-260l-21 -143h338l-19 -148h-508z" />
    <glyph glyph-name="Eacute" unicode="&#xc9;" horiz-adv-x="544" 
d="M327 923h204l-194 -179h-102zM118 705h453l-21 -145h-288l-15 -124h260l-21 -146h-260l-21 -143h338l-19 -148h-508z" />
    <glyph glyph-name="Ecircumflex" unicode="&#xca;" horiz-adv-x="544" 
d="M283 926h179l66 -170h-104l-58 87l-115 -87h-120zM118 705h453l-21 -145h-288l-15 -124h260l-21 -146h-260l-21 -143h338l-19 -148h-508z" />
    <glyph glyph-name="Edieresis" unicode="&#xcb;" horiz-adv-x="544" 
d="M248 923q31 0 55 -23t24 -55q0 -38 -23.5 -62.5t-60.5 -24.5q-36 0 -60 24t-24 60t26 58.5t63 22.5zM370 839q0 35 24 59t60 24t59 -22t23 -58t-23 -60t-59 -24t-60 22t-24 59zM118 705h453l-21 -145h-288l-15 -124h260l-21 -146h-260l-21 -143h338l-19 -148h-508z" />
    <glyph glyph-name="Igrave" unicode="&#xcc;" horiz-adv-x="262" 
d="M233 924l64 -178h-100l-158 178h194zM134 708h168l-100 -707h-168z" />
    <glyph glyph-name="Iacute" unicode="&#xcd;" horiz-adv-x="262" 
d="M198 923h203l-194 -179h-101zM134 708h168l-100 -707h-168z" />
    <glyph glyph-name="Icircumflex" unicode="&#xce;" horiz-adv-x="262" 
d="M161 926h179l65 -170h-103l-59 87l-115 -87h-119zM141 708h168l-100 -707h-168z" />
    <glyph glyph-name="Idieresis" unicode="&#xcf;" horiz-adv-x="262" 
d="M122 923q32 0 56 -23t24 -55q0 -38 -23.5 -62.5t-61.5 -24.5q-36 0 -59 24t-23 60t25.5 58.5t61.5 22.5zM245 839q0 35 25 59t61 24q30 0 55 -20t25 -50v-23q0 -29 -25.5 -50.5t-56.5 -21.5q-35 0 -59.5 23.5t-24.5 58.5zM139 708h168l-100 -707h-168z" />
    <glyph glyph-name="Ntilde" unicode="&#xd1;" horiz-adv-x="704" 
d="M344 920q34 0 89 -33t70 -33q19 0 28 12.5t13 33.5h99q-9 -61 -44 -105q-40 -51 -97 -51q-35 0 -91 31t-68 31q-25 0 -34 -12.5t-12 -38.5h-97q14 72 42 112q38 53 102 53zM111 706h162q32 -64 83 -159t83 -159q49 -96 77 -162q7 77 18 158t23.5 172t18.5 149h165
l-102 -706h-163q-43 80 -85 161q-56 107 -83 161q-38 77 -77 166q0 -103 -21 -234.5t-40 -252.5h-162z" />
    <glyph glyph-name="Ograve" unicode="&#xd2;" horiz-adv-x="745" 
d="M461 924l65 -178h-100l-158 178h193zM419 725q149 0 245 -90t96 -238q0 -173 -109 -294q-113 -125 -284 -125q-152 0 -241.5 90.5t-89.5 241.5q0 175 103 292q108 123 280 123zM375 131q97 0 161 85q58 77 58 177q0 76 -48 128.5t-123 52.5q-97 0 -161 -78
q-60 -73 -60 -173q0 -85 43 -136q47 -56 130 -56z" />
    <glyph glyph-name="Oacute" unicode="&#xd3;" horiz-adv-x="745" 
d="M426 923h205l-194 -179h-102zM419 725q149 0 245 -90t96 -238q0 -173 -109 -294q-113 -125 -284 -125q-152 0 -241.5 90.5t-89.5 241.5q0 175 103 292q108 123 280 123zM375 131q97 0 161 85q58 77 58 177q0 76 -48 128.5t-123 52.5q-97 0 -161 -78q-60 -73 -60 -173
q0 -85 43 -136q47 -56 130 -56z" />
    <glyph glyph-name="Ocircumflex" unicode="&#xd4;" horiz-adv-x="745" 
d="M382 926h180l66 -170h-105l-58 87l-116 -87h-118zM419 725q149 0 245 -90t96 -238q0 -173 -109 -294q-113 -125 -284 -125q-152 0 -241.5 90.5t-89.5 241.5q0 175 103 292q108 123 280 123zM375 131q97 0 161 85q58 77 58 177q0 76 -48 128.5t-123 52.5q-97 0 -161 -78
q-60 -73 -60 -173q0 -85 43 -136q47 -56 130 -56z" />
    <glyph glyph-name="Otilde" unicode="&#xd5;" horiz-adv-x="745" 
d="M367 920q34 0 89 -33t71 -33q18 0 28.5 13.5t12.5 32.5l98 1q0 -7 -4 -21q-19 -61 -46 -93q-36 -43 -91 -43q-31 0 -69 19q-87 43 -90 43q-24 0 -34.5 -13.5t-10.5 -37.5h-97q14 74 41 112q37 53 102 53zM419 725q149 0 245 -90t96 -238q0 -173 -109 -294
q-113 -125 -284 -125q-152 0 -241.5 90.5t-89.5 241.5q0 175 103 292q108 123 280 123zM375 131q97 0 161 85q58 77 58 177q0 76 -48 128.5t-123 52.5q-97 0 -161 -78q-60 -73 -60 -173q0 -85 43 -136q47 -56 130 -56z" />
    <glyph glyph-name="Odieresis" unicode="&#xd6;" horiz-adv-x="745" 
d="M427 727q143 0 237.5 -92.5t94.5 -235.5q0 -172 -106 -294q-111 -127 -280 -127q-155 0 -246.5 91.5t-91.5 247.5q0 175 109 292.5t283 117.5zM375 131q94 0 158 82q60 77 60 173q0 81 -46 134.5t-126 53.5q-97 0 -160 -78q-59 -73 -59 -173q0 -85 43 -136
q47 -56 130 -56zM372 925q30 0 51.5 -25.5t21.5 -57.5t-22.5 -57t-54.5 -25q-35 0 -62 24t-27 58q0 40 26 61.5t67 21.5zM571 925q36 0 60 -25t24 -62q0 -33 -26.5 -55.5t-60.5 -22.5q-35 0 -57 24t-22 59q0 34 24 58t58 24z" />
    <glyph glyph-name="Oslash" unicode="&#xd8;" horiz-adv-x="745" 
d="M90 105q-60 91 -60 193q0 174 104 296q110 129 280 129q72 0 124 -17t110 -59l59 58l54 -52l-63 -59q30 -60 34 -70q27 -61 27 -122q0 -168 -107 -293q-112 -131 -277 -131q-63 0 -121 16q-70 19 -108 56l-64 -59l-56 54zM534 533q-21 18 -47.5 28.5t-53.5 10.5
q-108 0 -175 -75t-67 -183q0 -24 4.5 -45t14.5 -49zM366 128q100 0 168 81q65 77 65 179q0 26 -4.5 47.5t-14.5 42.5l-321 -313q30 -22 51 -29.5t56 -7.5z" />
    <glyph glyph-name="Ugrave" unicode="&#xd9;" horiz-adv-x="664" 
d="M422 924l65 -178h-101l-157 178h193zM107 707h169l-65 -445l-1 -21q0 -54 39 -83q34 -25 90 -25q71 0 108 47q30 38 41 114l54 371l4 39l166 -1l-66 -465q-18 -124 -102 -191t-211 -67q-123 0 -201 61q-86 67 -86 187v19t2 21l21 147q12 76 22 152t16 140z" />
    <glyph glyph-name="Uacute" unicode="&#xda;" horiz-adv-x="664" 
d="M387 923h205l-194 -179h-102zM107 707h169l-65 -445l-1 -21q0 -54 39 -83q34 -25 90 -25q71 0 108 47q30 38 41 114l54 371l4 39l166 -1l-66 -465q-18 -124 -102 -191t-211 -67q-123 0 -201 61q-86 67 -86 187v19t2 21l21 147q12 76 22 152t16 140z" />
    <glyph glyph-name="Ucircumflex" unicode="&#xdb;" horiz-adv-x="664" 
d="M344 926h178l67 -170h-105l-58 87l-115 -87h-119zM107 707h169l-65 -445l-1 -21q0 -54 39 -83q34 -25 90 -25q71 0 108 47q30 38 41 114l54 371l4 39l166 -1l-66 -465q-18 -124 -102 -191t-211 -67q-123 0 -201 61q-86 67 -86 187v19t2 21l21 147q12 76 22 152t16 140z
" />
    <glyph glyph-name="Udieresis" unicode="&#xdc;" horiz-adv-x="664" 
d="M277 707l-65 -449l-1 -18v-12q0 -50 42 -75q35 -21 90 -21q60 0 95.5 35.5t44.5 97.5l64 439l168 -1l-41 -286q-8 -58 -15 -116q-10 -63 -24 -115q-29 -103 -114 -156q-79 -49 -192 -49q-121 0 -198 60q-85 66 -85 185q0 76 11 160q4 30 26 161q18 107 24 160h170z
M326 926q35 0 59.5 -23.5t24.5 -59.5q0 -35 -24.5 -58.5t-60.5 -23.5q-35 0 -58 25t-23 60q0 34 24 57t58 23zM452 846q0 32 26 55t59 23q36 0 58 -23t22 -59t-24 -59t-59 -23q-36 0 -59 25t-23 61z" />
    <glyph glyph-name="germandbls" unicode="&#xdf;" 
d="M318 721q79 0 135 -46q61 -50 61 -127q0 -57 -28.5 -93.5t-85.5 -59.5q48 -14 77 -60q26 -42 26 -95q0 -97 -60 -169q-65 -78 -159 -78q-32 0 -62 6l19 131l15 -1q49 0 73 31.5t24 81.5q0 44 -19.5 70.5t-63.5 33.5l16 105q39 0 63.5 19t24.5 57q0 34 -14 53
q-17 22 -50 22q-31 0 -51 -30q-16 -23 -21 -59l-76 -513h-141q5 31 23 183q15 123 24 184q14 96 34 179.5t76.5 129t139.5 45.5z" />
    <glyph glyph-name="agrave" unicode="&#xe0;" 
d="M267 706l117 -181h-100l-196 181h179zM435 -1h-143l5 40q-48 -47 -110 -47q-78 0 -123 64q-40 57 -40 139q0 125 90 202q85 73 213 73q31 0 69.5 -3.5t105.5 -13.5zM343 340l-29 2q-60 0 -103 -44t-43 -105q0 -31 18 -55.5t48 -24.5q26 0 53 16q7 4 29 20z" />
    <glyph glyph-name="aacute" unicode="&#xe1;" 
d="M302 705h185q-38 -28 -77 -64q-61 -59 -122 -117h-101zM435 -1h-143l5 40q-48 -47 -110 -47q-78 0 -123 64q-40 57 -40 139q0 125 90 202q85 73 213 73q31 0 69.5 -3.5t105.5 -13.5zM343 340l-29 2q-60 0 -103 -44t-43 -105q0 -31 18 -55.5t48 -24.5q26 0 53 16
q7 4 29 20z" />
    <glyph glyph-name="acircumflex" unicode="&#xe2;" 
d="M216 682h177l74 -178h-104l-64 95l-128 -98h-115zM435 -1h-143l5 40q-48 -47 -110 -47q-78 0 -123 64q-40 57 -40 139q0 125 90 202q85 73 213 73q31 0 69.5 -3.5t105.5 -13.5zM343 340l-29 2q-60 0 -103 -44t-43 -105q0 -31 18 -55.5t48 -24.5q26 0 53 16q7 4 29 20z
" />
    <glyph glyph-name="atilde" unicode="&#xe3;" 
d="M216 702q33 0 75.5 -22t86.5 -45q21 0 30 11.5t14 35.5h94q-9 -65 -38 -105q-36 -50 -96 -50q-36 0 -95 31.5t-74 31.5q-21 0 -29.5 -14.5t-11.5 -39.5h-94q10 70 38 112q36 54 100 54zM436 0h-143l5 40q-48 -47 -110 -47q-78 0 -123 64q-40 57 -40 139q0 125 90 202
q85 73 213 73q31 0 69.5 -3.5t105.5 -13.5zM344 341l-29 2q-60 0 -103 -44t-43 -105q0 -31 18 -55.5t48 -24.5q26 0 53 16q7 4 29 20z" />
    <glyph glyph-name="adieresis" unicode="&#xe4;" 
d="M438 1h-143l8 36q-39 -25 -53 -32q-29 -14 -60 -14q-74 0 -120 60q-42 55 -42 131q0 131 83 210t216 79q41 0 81 -4.5t95 -13.5zM240 706q36 0 59 -23t23 -59t-24 -59t-60 -23t-58.5 24.5t-22.5 60.5q0 34 24.5 56.5t58.5 22.5zM345 342l-28 1q-61 0 -104 -44t-43 -104
q0 -32 18.5 -57t48.5 -25q18 0 32 5.5t49 30.5zM445 705q35 0 60 -23t25 -59q0 -35 -24 -59t-60 -24q-32 0 -58 24t-26 56q0 34 24.5 59.5t58.5 25.5z" />
    <glyph glyph-name="aring" unicode="&#xe5;" 
d="M439 2h-141l5 34q-44 -28 -67 -36t-47 -8q-75 0 -120 63q-40 56 -40 134q0 125 83.5 204t210.5 79q89 0 182 -17zM347 345l-19 1q-65 0 -111 -44t-46 -108q0 -33 19 -57t51 -24q20 0 40.5 10t38.5 27zM344 705q39 0 68.5 -26.5t29.5 -65.5q0 -49 -30 -79t-80 -30
q-41 0 -68 27t-27 69q0 45 31 75t76 30zM335 570q15 0 28 12t13 28q0 10 -9.5 20.5t-18.5 10.5q-44 0 -44 -40q0 -12 9.5 -21.5t21.5 -9.5z" />
    <glyph glyph-name="ae" unicode="&#xe6;" horiz-adv-x="745" 
d="M537 475q102 0 155.5 -58.5t53.5 -160.5l-3 -60h-296q0 -47 25 -68t74 -21q44 0 103 21q40 16 59 23l-12 -117q-38 -24 -78 -36.5t-83 -12.5q-61 0 -107.5 21.5t-82.5 68.5q-26 -38 -73.5 -63t-93.5 -25q-79 0 -126 62q-43 56 -43 138q0 120 93.5 205t214.5 85
q36 0 64.5 -6.5t58.5 -23.5q18 9 34 15q35 13 63 13zM328 344l-12 1q-70 0 -116.5 -41t-46.5 -110q0 -32 19 -56t51 -24q17 0 36.5 9.5t39.5 23.5zM605 279l1 14q0 31 -16 53.5t-47 22.5q-33 0 -56 -27.5t-29 -62.5h147z" />
    <glyph glyph-name="ccedilla" unicode="&#xe7;" horiz-adv-x="403" 
d="M50 -171h10q37 0 55 6q32 11 32 40q0 13 -10 23.5t-24 19.5l51 91h66l-21 -52q30 -9 47.5 -31.5t17.5 -53.5q0 -64 -64 -101q-54 -31 -123 -31l-60 3zM422 322q-31 8 -43 10q-24 5 -44 5q-68 0 -111 -32q-49 -37 -49 -103q0 -38 25 -61t64 -23q34 0 71 12t75 31l-22 -150
q-40 -13 -72 -19t-65 -6q-101 0 -162.5 59.5t-61.5 159.5q0 115 84.5 191.5t200.5 76.5q62 0 131 -16z" />
    <glyph glyph-name="egrave" unicode="&#xe8;" horiz-adv-x="463" 
d="M249 706l116 -181h-100l-196 181h180zM168 205q0 -53 33.5 -81.5t86.5 -28.5q35 0 65 8.5t74 26.5l-19 -116q-36 -14 -68.5 -21.5t-67.5 -7.5q-107 0 -174 57q-72 61 -72 166q0 108 67 186q71 82 177 82q86 0 141 -56t55 -143q0 -18 -1 -36t-4 -36h-293zM331 289v12
q0 30 -17 55.5t-45 25.5q-33 0 -58 -31q-19 -23 -32 -62h152z" />
    <glyph glyph-name="eacute" unicode="&#xe9;" horiz-adv-x="463" 
d="M284 705h185q-44 -28 -103 -86q-48 -48 -96 -95h-102zM168 205q0 -53 33.5 -81.5t86.5 -28.5q35 0 65 8.5t74 26.5l-19 -116q-36 -14 -68.5 -21.5t-67.5 -7.5q-107 0 -174 57q-72 61 -72 166q0 108 67 186q71 82 177 82q86 0 141 -56t55 -143q0 -18 -1 -36t-4 -36h-293z
M331 289v12q0 30 -17 55.5t-45 25.5q-33 0 -58 -31q-19 -23 -32 -62h152z" />
    <glyph glyph-name="ecircumflex" unicode="&#xea;" horiz-adv-x="463" 
d="M196 682h179l74 -178h-104l-65 95l-127 -98h-116zM168 205q0 -53 33.5 -81.5t86.5 -28.5q35 0 65 8.5t74 26.5l-19 -116q-36 -14 -68.5 -21.5t-67.5 -7.5q-107 0 -174 57q-72 61 -72 166q0 108 67 186q71 82 177 82q86 0 141 -56t55 -143q0 -18 -1 -36t-4 -36h-293z
M331 289v12q0 30 -17 55.5t-45 25.5q-33 0 -58 -31q-19 -23 -32 -62h152z" />
    <glyph glyph-name="edieresis" unicode="&#xeb;" horiz-adv-x="463" 
d="M178 704q36 0 59 -25t23 -61q0 -35 -25.5 -57.5t-61.5 -22.5q-33 0 -56 25t-23 58q0 35 24 59t60 24zM303 626q0 32 25.5 55.5t58.5 23.5q36 0 59.5 -24.5t23.5 -59.5t-24 -58t-59 -23q-36 0 -60 25t-24 61zM169 205q0 -53 33.5 -81.5t86.5 -28.5q35 0 65 8.5t74 26.5
l-19 -116q-36 -14 -68.5 -21.5t-67.5 -7.5q-107 0 -174 57q-72 61 -72 166q0 108 67 186q71 82 177 82q86 0 141 -56t55 -143q0 -18 -1 -36t-4 -36h-293zM332 289v12q0 30 -17 55.5t-45 25.5q-33 0 -58 -31q-19 -23 -32 -62h152z" />
    <glyph glyph-name="igrave" unicode="&#xec;" horiz-adv-x="241" 
d="M148 706l117 -181h-101l-195 181h179zM103 460h143l-68 -459h-141z" />
    <glyph glyph-name="iacute" unicode="&#xed;" horiz-adv-x="241" 
d="M179 705h186q-45 -32 -102 -87l-96 -94h-103zM100 460h143l-68 -459h-141z" />
    <glyph glyph-name="icircumflex" unicode="&#xee;" horiz-adv-x="241" 
d="M93 682h177l75 -178h-104l-65 95l-127 -98h-115zM100 460h143l-68 -459h-141z" />
    <glyph glyph-name="idieresis" unicode="&#xef;" horiz-adv-x="241" 
d="M80 704q36 0 59.5 -24.5t23.5 -61.5q0 -34 -26 -56.5t-61 -22.5q-33 0 -57.5 25.5t-24.5 57.5q0 34 26 58t60 24zM206 626q0 32 25.5 55.5t58.5 23.5q36 0 59 -24t23 -60q0 -35 -24 -58t-59 -23q-37 0 -60 24t-23 62zM107 460h143l-68 -459h-141z" />
    <glyph glyph-name="ntilde" unicode="&#xf1;" 
d="M215 702q36 0 77 -21.5t85 -44.5q20 0 30 12t15 34h93q-8 -63 -39 -105q-37 -50 -96 -50q-36 0 -93 31.5t-74 31.5q-21 0 -30 -15t-12 -39h-94q10 70 38 112q36 54 100 54zM87 460h141l-7 -57l46 38q38 29 90 29q55 0 90.5 -34.5t35.5 -90.5q0 -69 -17 -173
q-25 -152 -27 -172h-145l33 206q4 29 7.5 60t3.5 53q0 16 -13 25.5t-29 9.5q-24 0 -52 -25q-17 -16 -39 -45l-43 -283h-144z" />
    <glyph glyph-name="ograve" unicode="&#xf2;" 
d="M268 706l116 -181h-100l-195 181h179zM279 476q93 0 157.5 -62.5t64.5 -155.5q0 -111 -67 -189q-70 -82 -179 -82q-106 0 -169 57t-63 163q0 116 70.5 192.5t185.5 76.5zM247 110q52 0 81 52q24 43 24 100q0 39 -18 64q-21 29 -58 29q-51 0 -82 -52q-26 -44 -26 -99
q0 -42 19.5 -68t59.5 -26z" />
    <glyph glyph-name="oacute" unicode="&#xf3;" 
d="M302 705h185q-38 -28 -77 -64q-61 -59 -122 -117h-101zM279 476q93 0 157.5 -62.5t64.5 -155.5q0 -111 -67 -189q-70 -82 -179 -82q-106 0 -169 57t-63 163q0 116 70.5 192.5t185.5 76.5zM247 110q52 0 81 52q24 43 24 100q0 39 -18 64q-21 29 -58 29q-51 0 -82 -52
q-26 -44 -26 -99q0 -42 19.5 -68t59.5 -26z" />
    <glyph glyph-name="ocircumflex" unicode="&#xf4;" 
d="M216 682h177l75 -178h-104l-65 95l-127 -98h-115zM279 476q93 0 157.5 -62.5t64.5 -155.5q0 -111 -67 -189q-70 -82 -179 -82q-106 0 -169 57t-63 163q0 116 70.5 192.5t185.5 76.5zM247 110q52 0 81 52q24 43 24 100q0 39 -18 64q-21 29 -58 29q-51 0 -82 -52
q-26 -44 -26 -99q0 -42 19.5 -68t59.5 -26z" />
    <glyph glyph-name="otilde" unicode="&#xf5;" 
d="M216 702q36 0 77 -21.5t85 -44.5q20 0 30 12t15 34h93q-8 -63 -39 -105q-37 -50 -96 -50q-36 0 -93 31.5t-74 31.5q-21 0 -30 -15t-12 -39h-94q10 70 38 112q36 54 100 54zM280 477q93 0 157.5 -62.5t64.5 -155.5q0 -111 -67 -189q-70 -82 -179 -82q-106 0 -169 57
t-63 163q0 116 70.5 192.5t185.5 76.5zM248 111q52 0 81 52q24 43 24 100q0 39 -18 64q-21 29 -58 29q-51 0 -82 -52q-26 -44 -26 -99q0 -42 19.5 -68t59.5 -26z" />
    <glyph glyph-name="odieresis" unicode="&#xf6;" 
d="M273 477q98 0 163.5 -60t65.5 -157q0 -122 -74 -198t-195 -76q-93 0 -150.5 65.5t-57.5 160.5q0 110 69.5 187.5t178.5 77.5zM211 705q34 0 59.5 -22.5t25.5 -56.5q0 -37 -23.5 -61.5t-60.5 -24.5q-35 0 -59 25t-24 60q0 32 25 56t57 24zM243 108q55 0 85 50
q26 43 26 101q0 39 -17 65q-20 31 -58 31q-50 0 -82 -48q-28 -42 -28 -95q0 -43 15 -70q19 -34 59 -34zM423 704q32 0 57 -23t25 -55q0 -36 -24 -61t-60 -25q-35 0 -59 24t-24 60q0 35 24.5 57.5t60.5 22.5z" />
    <glyph glyph-name="divide" unicode="&#xf7;" horiz-adv-x="524" 
d="M-2 282h510v-53h-510v53zM248 442q22 0 38 -16t16 -38t-16 -38t-38 -16t-38 16t-16 38t16 38t38 16zM248 178q23 0 38.5 -16.5t15.5 -38.5t-16 -38t-38 -16t-38 16t-16 38t15.5 38.5t38.5 16.5z" />
    <glyph glyph-name="oslash" unicode="&#xf8;" 
d="M449 503l48 -34l-51 -61q28 -37 43 -72t15 -76q0 -113 -71 -193t-183 -80q-39 0 -63.5 6.5t-63.5 24.5l-54 -61l-45 38l50 61q-28 36 -40 69.5t-12 77.5q0 116 68.5 193.5t183.5 77.5q36 0 62 -6.5t63 -23.5zM321 344q-12 9 -21.5 13.5t-22.5 4.5q-47 0 -81.5 -49
t-34.5 -98v-31q3 -14 4 -20zM250 101q51 0 83 55q28 48 28 102q0 20 -5 45l-154 -185q25 -17 48 -17z" />
    <glyph glyph-name="ugrave" unicode="&#xf9;" 
d="M270 706l116 -181h-100l-195 181h179zM233 461q-5 -38 -14 -92l-17 -102q-4 -27 -7.5 -58.5t-3.5 -52.5q0 -20 9.5 -35t29.5 -15q26 0 53 26q30 34 42 47l39 281h144l-66 -460h-143l11 64q-28 -35 -64 -54.5t-80 -19.5q-52 0 -86.5 36.5t-34.5 90.5q0 17 3.5 44t5.5 41
q18 129 36 259h143z" />
    <glyph glyph-name="uacute" unicode="&#xfa;" 
d="M304 705h185q-38 -28 -77 -64q-61 -59 -122 -117h-101zM233 461q-5 -38 -14 -92l-17 -102q-4 -27 -7.5 -58.5t-3.5 -52.5q0 -20 9.5 -35t29.5 -15q26 0 53 26q30 34 42 47l39 281h144l-66 -460h-143l11 64q-28 -35 -64 -54.5t-80 -19.5q-52 0 -86.5 36.5t-34.5 90.5
q0 17 3.5 44t5.5 41q18 129 36 259h143z" />
    <glyph glyph-name="ucircumflex" unicode="&#xfb;" 
d="M218 682h177l75 -178h-104l-65 95l-127 -98h-115zM233 461q-5 -38 -14 -92l-17 -102q-4 -27 -7.5 -58.5t-3.5 -52.5q0 -20 9.5 -35t29.5 -15q26 0 53 26q30 34 42 47l39 281h144l-66 -460h-143l11 64q-28 -35 -64 -54.5t-80 -19.5q-52 0 -86.5 36.5t-34.5 90.5
q0 17 3.5 44t5.5 41q18 129 36 259h143z" />
    <glyph glyph-name="udieresis" unicode="&#xfc;" 
d="M93 461h142l-32 -199q-4 -26 -7.5 -58.5t-3.5 -52.5q0 -43 38 -43q24 0 53 24q22 18 42 45l40 284h143l-66 -461h-140l10 67q-53 -76 -144 -76q-53 0 -86 35t-33 88v18t2 21zM216 705q35 0 59.5 -22.5t24.5 -57.5q0 -36 -23.5 -60.5t-58.5 -24.5t-60 25t-25 60
q0 33 24.5 56.5t58.5 23.5zM422 703q35 0 60.5 -23.5t25.5 -58.5q0 -31 -23.5 -56.5t-54.5 -25.5q-39 0 -63.5 23.5t-24.5 62.5q0 32 24 55t56 23z" />
    <glyph glyph-name="ydieresis" unicode="&#xff;" horiz-adv-x="423" 
d="M154 704q36 0 60 -25t24 -61q0 -34 -26.5 -57t-61.5 -23q-32 0 -57 26t-25 59t26 57t60 24zM280 626q0 32 25.5 55.5t58.5 23.5q35 0 59 -24t24 -60q0 -34 -24.5 -57.5t-59.5 -23.5q-37 0 -60 24t-23 62zM156 462q34 -133 69 -266q22 67 48 133q23 58 54 132h156
l-310 -684h-156l123 259l-144 426h160z" />
    <glyph glyph-name="dotlessi" unicode="&#x131;" horiz-adv-x="241" 
d="M99 460h143l-68 -459h-141z" />
    <glyph glyph-name="OE" unicode="&#x152;" horiz-adv-x="946" 
d="M968 702l-18 -142h-284l-16 -124h240l-20 -146h-244l-20 -145h341l-20 -146h-594q-9 0 -22 2t-23 4q-128 24 -195.5 102.5t-67.5 209.5q0 158 113.5 271.5t271.5 113.5h558zM504 562l-56 -2q-111 0 -181 -66t-70 -178q0 -105 78 -144q54 -27 171 -27z" />
    <glyph glyph-name="oe" unicode="&#x153;" horiz-adv-x="764" 
d="M565 474q93 0 147 -61q51 -58 51 -152l-3 -66h-296v-13q0 -38 28.5 -57t67.5 -19q46 0 105 21q31 11 62 23l-16 -120q-69 -31 -100 -38.5t-65 -7.5q-48 0 -82.5 13t-76.5 44q-44 -28 -72 -39q-38 -15 -81 -15q-104 0 -164 60t-60 164q0 111 70 187t181 76q45 0 84 -12.5
t70 -41.5q42 29 70 40q36 14 80 14zM227 109q54 0 84 51q26 44 26 102q0 38 -20 64.5t-57 26.5q-50 0 -80 -52q-25 -44 -25 -99q0 -37 18 -65t54 -28zM626 279l1 13q0 31 -17.5 54t-48.5 23q-33 0 -57.5 -27.5t-30.5 -62.5h153z" />
    <glyph glyph-name="Scaron" unicode="&#x160;" horiz-adv-x="733" 
d="M302 0h-286v157h15q6 -32 19.5 -45.5t44.5 -13.5h153l-3 27q-98 29 -152 93q-57 68 -57 168q0 130 97 208q91 73 223 73q134 0 224 -72q98 -78 98 -209q0 -100 -55.5 -166t-155.5 -95l-2 -27h153q31 0 44.5 13.5t19.5 45.5h15v-157h-286l15 147q76 33 109 97
q30 57 30 145q0 110 -48 174q-55 73 -162 73q-105 0 -159 -72q-48 -64 -48 -175q0 -89 29 -145q33 -63 110 -97z" />
    <glyph glyph-name="Ydieresis" unicode="&#x178;" horiz-adv-x="523" 
d="M243 923q36 0 57.5 -24.5t21.5 -61.5q0 -34 -24.5 -56.5t-59.5 -22.5q-36 0 -59 24t-23 60t25.5 58.5t61.5 22.5zM365 839q0 35 25 59t62 24q34 0 57 -23t23 -57q0 -35 -23.5 -59.5t-59.5 -24.5q-34 0 -59 23t-25 58zM240 706l69 -260q24 53 49 99q19 36 93 161h177
l-257 -406l-41 -301h-170l45 306l-144 401h179z" />
    <glyph glyph-name="florin" unicode="&#x192;" horiz-adv-x="524" 
d="M498 0h-482v53h482v-53zM498 337l-482 -224v61l420 193l-420 193v60l482 -223v-60z" />
    <glyph glyph-name="circumflex" unicode="&#x2c6;" horiz-adv-x="0" 
d="M-16 682h179l74 -178h-104l-65 95l-127 -98h-116z" />
    <glyph glyph-name="caron" unicode="&#x2c7;" horiz-adv-x="0" 
d="M-11 683l67 -96l123 97h119l-161 -180h-177l-73 179h102z" />
    <glyph glyph-name="tilde" unicode="&#x2dc;" horiz-adv-x="0" 
d="M-15 702q33 0 74.5 -21.5t85.5 -44.5q21 0 31 12t15 34h94q-9 -63 -39 -104q-38 -51 -97 -51q-36 0 -94 31.5t-73 31.5q-22 0 -29.5 -14t-11.5 -40l-94 -1q0 62 37 112q41 55 101 55z" />
    <glyph glyph-name="endash" unicode="&#x2013;" horiz-adv-x="544" 
d="M38 337h503l-23 -159h-504z" />
    <glyph glyph-name="emdash" unicode="&#x2014;" horiz-adv-x="644" 
d="M21 348h673v-105h-673v105z" />
    <glyph glyph-name="quoteleft" unicode="&#x2018;" horiz-adv-x="282" 
d="M332 630q-32 0 -60 -19t-46 -49q30 -19 42 -34q16 -21 16 -52q0 -39 -27.5 -64.5t-67.5 -25.5q-50 0 -79.5 34t-29.5 86q0 86 71 148q66 57 155 66l39 3z" />
    <glyph glyph-name="quoteright" unicode="&#x2019;" horiz-adv-x="282" 
d="M59 470q32 5 57 24.5t47 49.5q-31 14 -48 33.5t-17 51.5q0 40 27.5 66.5t68.5 26.5q51 0 80 -36t29 -88q0 -93 -76 -158q-72 -61 -165 -61l-16 -1z" />
    <glyph glyph-name="quotesinglbase" unicode="&#x201a;" horiz-adv-x="268" 
d="M-7 -75q37 12 60 27q29 19 43 49q-32 21 -43 33q-20 22 -20 51q0 44 27 69t71 25q50 0 78 -36t28 -88q0 -92 -73 -153q-65 -54 -162 -64l-19 -2z" />
    <glyph glyph-name="quotedblleft" unicode="&#x201c;" horiz-adv-x="523" 
d="M306 630q-66 -14 -98 -71q27 -15 44.5 -36t17.5 -48q0 -41 -28 -68t-70 -27q-49 0 -78.5 35t-29.5 86q0 94 81 160q77 62 173 62zM557 630q-32 0 -65 -35q-12 -13 -29 -36q28 -12 46 -34.5t18 -51.5q0 -43 -27.5 -68.5t-71.5 -25.5q-49 0 -78 37.5t-29 87.5q0 94 80 157
q70 55 170 64z" />
    <glyph glyph-name="quotedblright" unicode="&#x201d;" horiz-adv-x="523" 
d="M68 469q67 15 95 78q-31 14 -46 31q-19 21 -19 52q0 40 29.5 66.5t69.5 26.5q48 0 79 -39q28 -36 28 -86q0 -55 -30.5 -102t-81.5 -79q-27 -17 -66 -27q-20 -5 -70 -13zM319 472q34 10 59 26q30 20 41 49q-31 16 -45 33q-18 21 -18 52q0 42 29.5 66.5t72.5 24.5
q48 0 76 -37.5t28 -87.5q0 -91 -81 -156q-76 -61 -170 -61h-6z" />
    <glyph glyph-name="quotedblbase" unicode="&#x201e;" horiz-adv-x="523" 
d="M-27 -71q31 5 56.5 26t42.5 52q-33 14 -47 30q-18 20 -18 52q0 43 28 68t71 25q49 0 78 -36t29 -86q0 -91 -72 -153q-67 -58 -161 -67l-21 -2zM227 -72q34 6 58 25.5t43 51.5q-27 9 -45.5 33.5t-18.5 52.5q0 39 32.5 63.5t72.5 24.5q45 0 73 -36.5t28 -83.5
q0 -97 -82 -161q-76 -60 -175 -60z" />
    <glyph glyph-name="dagger" unicode="&#x2020;" horiz-adv-x="463" 
d="M50 472l196 -43l-4 278h134l-77 -279l215 44l-19 -133l-204 39l-34 -599h-157l141 600l-211 -39z" />
    <glyph glyph-name="daggerdbl" unicode="&#x2021;" horiz-adv-x="786" 
d="M667 3q0 -46 25 -64q21 -15 69 -15v-22h-297v22q48 0 70.5 16t22.5 63v672h-347v-671q0 -47 25 -65q20 -15 69 -15v-22h-298v22q49 0 69 14q25 18 25 65v607q0 46 -23 71t-69 25v22h750v-21q-46 0 -68.5 -25t-22.5 -72v-607z" />
    <glyph glyph-name="bullet" unicode="&#x2022;" horiz-adv-x="333" 
d="M297 353q0 -55 -36.5 -92.5t-91.5 -37.5q-54 0 -93.5 38.5t-39.5 91.5t39.5 91.5t93.5 38.5t91 -38t37 -92z" />
    <glyph glyph-name="ellipsis" unicode="&#x2026;" horiz-adv-x="1000" 
d="M219 0h-104v106h104v-106zM552 0h-104v106h104v-106zM885 0h-104v106h104v-106z" />
    <glyph glyph-name="perthousand" unicode="&#x2030;" horiz-adv-x="262" 
d="M54 -104q-22 0 -40 18t-18 41q0 16 13 29t29 13q14 0 30.5 -15.5t21.5 -15.5q15 0 22 41q4 25 4 54q0 74 -2 140t-4 160v220q0 113 12 179q23 129 88 129q27 0 46.5 -15t19.5 -41q0 -18 -15.5 -29.5t-33.5 -11.5q-14 0 -28 11t-21 11q-11 0 -14.5 -8.5t-3.5 -21.5
q0 -44 12 -194q6 -75 6 -118l1 -105q0 -141 -8 -233q-15 -172 -55 -214q-9 -10 -28.5 -17t-33.5 -7z" />
    <glyph glyph-name="guilsinglleft" unicode="&#x2039;" horiz-adv-x="333" 
d="M245 108l-157 123v92l157 123v-88l-105 -81l105 -81v-88z" />
    <glyph glyph-name="guilsinglright" unicode="&#x203a;" horiz-adv-x="333" 
d="M88 196l105 81l-105 81v88l157 -123v-92l-157 -123v88z" />
    <glyph glyph-name="trademark" unicode="&#x2122;" horiz-adv-x="851" 
d="M309 653l3 -94l-18 -1v9q0 43 -37 56q-22 8 -73 8v-302q0 -17 14 -22t34 -5v-18h-155v18q23 0 32 3q18 6 18 24l-1 301q-54 0 -75 -9q-35 -15 -35 -63l-18 1l3 94h308zM450 653l129 -280l122 280h108v-18h-9q-18 0 -28 -4.5t-10 -19.5v-282q0 -17 14 -22t34 -5v-18h-155
v18q23 0 32 3q18 6 18 24v269l-130 -314h-18l-140 298v-253q0 -20 25 -25q10 -2 25 -2v-18h-125v18q23 0 31 3q18 6 18 24v272q0 25 -12 29.5t-26 4.5h-13v18h110z" />
    <glyph glyph-name="fraction" unicode="&#x2215;" horiz-adv-x="121" 
d="M185 706h71l-337 -704h-68z" />
    </font>
</defs>
</svg>
